<svg width="155" height="24" viewBox="0 0 155 24" fill="none" xmlns="http://www.w3.org/2000/svg">
<path d="M0.704 0.599998H8.128L9.408 17.432V20.696H10.176V17.432L11.456 0.599998H18.88V23H15.04V8.024L15.424 2.904H14.656L12.992 23H6.656L4.928 2.904H4.16L4.544 8.024V23H0.704V0.599998ZM22.2178 0.599998H36.3618V4.632H26.4418V9.752H35.9778V13.784H26.4418V18.968H36.7458V23H22.2178V0.599998ZM41.8115 0.599998H46.0355V18.968H56.2115V23H41.8115V0.599998ZM61.4053 0.599998H65.6293V18.968H75.8053V23H61.4053V0.599998ZM85.479 11.8C85.479 11.0747 85.7457 10.4453 86.279 9.912C86.8123 9.37867 87.4417 9.112 88.167 9.112C88.8923 9.112 89.5217 9.37867 90.055 9.912C90.5883 10.4453 90.855 11.0747 90.855 11.8C90.855 12.5253 90.5883 13.1547 90.055 13.688C89.5217 14.2213 88.8923 14.488 88.167 14.488C87.4417 14.488 86.8123 14.2213 86.279 13.688C85.7457 13.1547 85.479 12.5253 85.479 11.8ZM79.911 9.304C79.911 6.40267 80.6363 4.152 82.087 2.552C83.559 0.951998 85.5857 0.151999 88.167 0.151999C90.7483 0.151999 92.7643 0.951998 94.215 2.552C95.687 4.152 96.423 6.40267 96.423 9.304V14.296C96.423 17.2827 95.687 19.5547 94.215 21.112C92.7643 22.6693 90.7483 23.448 88.167 23.448C85.5857 23.448 83.559 22.6693 82.087 21.112C80.6363 19.5547 79.911 17.2827 79.911 14.296V9.304ZM88.167 19.608C88.935 19.608 89.575 19.4907 90.087 19.256C90.599 19 91.015 18.648 91.335 18.2C91.655 17.752 91.879 17.2187 92.007 16.6C92.135 15.9813 92.199 15.2987 92.199 14.552V9.048C92.199 8.344 92.1243 7.68267 91.975 7.064C91.8257 6.44533 91.591 5.912 91.271 5.464C90.951 5.016 90.535 4.664 90.023 4.408C89.511 4.13067 88.8923 3.992 88.167 3.992C87.4417 3.992 86.823 4.13067 86.311 4.408C85.799 4.664 85.383 5.016 85.063 5.464C84.743 5.912 84.5083 6.44533 84.359 7.064C84.2097 7.68267 84.135 8.344 84.135 9.048V14.552C84.135 15.2987 84.199 15.9813 84.327 16.6C84.455 17.2187 84.679 17.752 84.999 18.2C85.319 18.648 85.735 19 86.247 19.256C86.759 19.4907 87.399 19.608 88.167 19.608ZM116.529 23H109.169L108.145 5.976V2.904H107.377V5.976L106.353 23H98.9928L98.2248 0.599998H102.065L102.577 17.624V20.504H103.345V17.624L104.369 0.599998H111.153L112.177 17.624V20.504H112.945V17.624L113.457 0.599998H117.297L116.529 23ZM131.899 18.488L129.563 16.152L128.507 13.784L127.995 14.008L128.891 16.344V19.736H125.819V16.344L126.715 14.008L126.203 13.784L125.147 16.152L122.811 18.488L120.667 16.344L123.003 14.008L125.371 12.952L125.147 12.44L122.811 13.336H119.419V10.264H122.811L125.147 11.16L125.371 10.648L123.003 9.592L120.667 7.256L122.811 5.112L125.147 7.448L126.203 9.816L126.715 9.592L125.819 7.256V3.864H128.891V7.256L127.995 9.592L128.507 9.816L129.563 7.448L131.899 5.112L134.043 7.256L131.707 9.592L129.339 10.648L129.563 11.16L131.899 10.264H135.291V13.336H131.899L129.563 12.44L129.339 12.952L131.707 14.008L134.043 16.344L131.899 18.488Z" fill="#FEFDFF"/>
<path d="M138.628 0.599998H146.756C149.53 0.599998 151.588 1.25067 152.932 2.552C154.276 3.832 154.948 5.82667 154.948 8.536V15.064C154.948 17.7733 154.276 19.7787 152.932 21.08C151.588 22.36 149.53 23 146.756 23H138.628V18.936H140.74V4.632H138.628V0.599998ZM146.756 18.968C148.228 18.968 149.252 18.6267 149.828 17.944C150.426 17.24 150.724 16.152 150.724 14.68V8.536C150.724 7.256 150.426 6.28533 149.828 5.624C149.252 4.96267 148.228 4.632 146.756 4.632H144.964V18.968H146.756Z" fill="#AD5FFC"/>
</svg>
